# xmcd
#
# Track frame offsets:
#	150
#	7198
#	18852
#	27702
#	40093
#	49771
#	56632
#	64459
#	74459
#	82765
#	91651
#	101896
#	110437
#	117780
#	125660
#	136423
#	145045
#	155571
#	164511
#	172305
#	182974
#	193739
#
# Disc length: 2700 seconds
#
# Revision: 0
# Processed by: cddbd v1.5.2PL0 Copyright (c) Steve Scherf et al.
# Submitted via: audiograbber 1.83.01
#
DISCID=420a8a16
DTITLE=Kaerntner Viergesang - Die schönsten Kärntnerlieder
DYEAR=2008
DGENRE=Country
TTITLE0=Aus tiafastn Herzn
TTITLE1=O Diandle tiaf drunt im Tal
TTITLE2=In da Maltinger Wand
TTITLE3=In da Moelltalleitn
TTITLE4=Is schon still uman See
TTITLE5=Hab ein, liaba Wind
TTITLE6=De Liab is a Traman
TTITLE7=Das Radl der Zeit
TTITLE8=Bin gekniat nebn deina
TTITLE9=Siegst lei du mi so
TTITLE10=Kaefarle, nimm dei Latern
TTITLE11=Gernhabn tuat guat
TTITLE12=Is a Latar zan Himml
TTITLE13=Wen willst denn
TTITLE14=Wohl in der Wiederschwing
TTITLE15=20-Der Tannebam
TTITLE16=Tiaf ban See da drobn
TTITLE17=21-s Flattnitzliadle
TTITLE18=Gelbe Roasn
TTITLE19=Auf da Fratn verschlaft die Sunn
TTITLE20=I bedank mi
TTITLE21=Hamgeahn
EXTD=
EXTT0=
EXTT1=
EXTT2=
EXTT3=
EXTT4=
EXTT5=
EXTT6=
EXTT7=
EXTT8=
EXTT9=
EXTT10=
EXTT11=
EXTT12=
EXTT13=
EXTT14=
EXTT15=
EXTT16=
EXTT17=
EXTT18=
EXTT19=
EXTT20=
EXTT21=
PLAYORDER=
